<?xml version="1.0" standalone="no"?>
<!DOCTYPE svg PUBLIC "-//W3C//DTD SVG 20010904//EN"
 "http://www.w3.org/TR/2001/REC-SVG-20010904/DTD/svg10.dtd">
<svg version="1.0" xmlns="http://www.w3.org/2000/svg"
 width="361.000000pt" height="361.000000pt" viewBox="0 0 361.000000 361.000000"
 preserveAspectRatio="xMidYMid meet">
<metadata>
Created by potrace 1.14, written by Peter Selinger 2001-2017
</metadata>
<g transform="translate(0.000000,361.000000) scale(0.100000,-0.100000)"
fill="#000000" stroke="none">
<path d="M2466 3593 c-3 -3 -16 -7 -28 -9 -32 -5 -49 -9 -78 -21 -14 -6 -33
-9 -42 -7 -10 1 -18 0 -18 -4 0 -4 -69 -8 -153 -8 -139 -2 -210 -6 -322 -19
-22 -2 -67 -7 -100 -10 -33 -2 -89 -7 -125 -11 -36 -3 -86 -7 -111 -8 -25 -2
-50 -6 -57 -9 -6 -4 -14 -3 -17 3 -5 8 -12 7 -23 -2 -13 -11 -14 -11 -7 1 6
11 5 12 -6 5 -17 -10 -199 -12 -199 -2 0 4 -11 3 -24 -2 -13 -5 -27 -6 -30 -3
-9 9 -236 11 -242 2 -2 -4 -13 -6 -24 -4 -11 2 -20 0 -20 -4 0 -4 -16 -13 -35
-21 -19 -8 -35 -17 -35 -22 0 -4 -7 -8 -15 -8 -8 0 -15 -4 -15 -10 0 -5 -19
-23 -42 -40 -22 -16 -37 -30 -32 -30 5 0 -1 -7 -13 -15 -48 -34 -78 -155 -61
-250 16 -88 52 -145 90 -145 10 0 18 -4 18 -10 0 -5 6 -10 14 -10 22 0 28 -31
10 -58 -9 -13 -19 -50 -21 -81 -3 -31 -10 -59 -14 -62 -5 -3 -28 -3 -52 -1
-23 2 -52 5 -64 5 -13 1 -23 4 -23 8 0 9 -55 3 -71 -7 -6 -3 -8 -12 -5 -20 3
-7 1 -16 -5 -19 -5 -4 -7 -10 -5 -14 3 -4 6 -50 7 -102 1 -52 6 -100 13 -108
9 -12 8 -13 -3 -6 -10 6 -12 4 -6 -5 4 -7 9 -23 11 -34 1 -12 11 -42 23 -69
11 -26 19 -49 18 -51 -1 -2 9 -13 23 -24 28 -23 46 -19 77 16 20 22 56 26 51
5 -1 -4 6 -32 15 -61 9 -30 16 -57 16 -60 -1 -4 -1 -9 0 -12 5 -14 17 -190 25
-380 3 -74 9 -173 13 -220 3 -47 7 -115 7 -152 1 -38 3 -68 6 -68 3 0 5 -53 6
-118 0 -64 5 -184 9 -267 5 -82 8 -188 7 -235 -1 -47 -3 -121 -4 -165 -2 -79
12 -220 22 -220 1 0 3 -9 4 -20 6 -48 29 -125 37 -125 5 0 9 -9 9 -20 0 -11 5
-20 10 -20 6 0 10 -5 10 -11 0 -31 117 -94 195 -105 11 -2 35 -7 53 -13 17 -5
32 -7 32 -4 0 3 6 1 13 -5 13 -11 981 -17 999 -6 5 3 37 7 71 9 34 2 76 6 92
9 17 3 46 8 65 12 19 3 47 7 61 8 14 2 30 6 36 9 5 3 20 8 34 10 117 22 256
126 290 217 5 14 12 32 16 40 3 8 5 19 4 24 -1 4 2 13 7 20 10 14 15 61 15
151 1 79 -6 127 -22 168 -6 16 -13 47 -16 70 -15 133 -24 234 -30 362 -2 50
-5 90 -5 90 -2 0 -9 162 -10 253 -1 50 -6 95 -12 98 -5 3 -5 11 0 17 5 7 7 32
5 57 -6 82 -8 695 -2 695 3 0 13 6 22 13 10 9 17 10 22 2 4 -7 12 -7 24 0 10
5 21 7 24 3 4 -3 11 6 16 21 6 14 14 26 18 27 5 0 18 2 31 3 13 2 25 -1 28 -6
3 -4 9 -6 14 -3 4 3 14 -15 21 -40 7 -25 16 -45 20 -45 3 0 6 -6 6 -13 0 -19
65 -149 85 -171 10 -11 18 -26 18 -34 0 -8 6 -12 14 -9 10 4 13 1 10 -8 -6
-15 23 -65 38 -65 14 0 -1 39 -31 85 -15 22 -30 48 -34 58 -3 9 -11 17 -17 17
-6 0 -9 4 -6 9 3 5 -1 14 -9 21 -8 7 -12 16 -9 21 3 5 1 9 -4 9 -9 0 -25 37
-23 53 1 4 -4 7 -10 7 -5 0 -8 4 -4 9 3 5 1 12 -4 16 -6 3 -8 12 -5 19 3 7 -2
19 -11 26 -8 7 -15 25 -15 41 0 16 -4 29 -10 29 -5 0 -10 6 -10 13 0 6 -10 21
-23 32 -16 14 -22 27 -19 47 2 15 8 25 13 22 5 -3 9 0 9 6 0 6 3 9 8 6 11 -7
37 17 37 34 0 8 -10 25 -22 36 -13 12 -23 27 -23 33 0 7 -4 9 -10 6 -5 -3 -10
1 -10 9 0 9 -5 16 -11 16 -5 0 -7 5 -4 10 3 6 0 10 -8 10 -8 0 -17 8 -21 18
-3 9 -9 23 -12 30 -4 10 4 12 35 11 23 -2 41 -7 41 -11 0 -4 8 -8 19 -8 10 0
24 -7 31 -15 6 -8 15 -14 18 -13 10 3 121 -52 127 -63 4 -5 10 -7 15 -4 4 3
13 -2 20 -10 7 -8 16 -15 21 -15 4 0 20 -5 36 -12 15 -6 30 -12 33 -13 110
-34 183 -40 215 -19 14 9 22 26 23 53 2 31 -2 41 -22 54 -13 9 -37 18 -52 21
-16 2 -29 5 -29 6 0 1 -16 3 -35 5 -41 6 -60 10 -80 18 -8 4 -24 8 -35 11 -11
2 -36 9 -55 17 -19 7 -38 12 -42 11 -5 -1 -8 2 -8 7 0 7 -25 15 -85 26 -5 1
-13 3 -17 5 -5 1 -11 3 -15 5 -5 1 -52 23 -106 49 -54 26 -102 44 -107 41 -6
-3 -10 -1 -10 4 0 6 -8 11 -17 11 -9 0 -36 9 -60 21 -37 18 -41 23 -33 40 6
10 9 19 6 19 -2 0 6 21 19 47 13 25 22 50 19 55 -3 4 -1 8 4 8 14 0 6 131 -11
170 -19 44 -19 43 -1 86 9 22 11 33 4 29 -9 -6 -9 -2 -2 12 8 14 7 30 -2 56
-12 37 -55 91 -64 82 -3 -3 -10 2 -16 9 -6 8 -24 17 -41 20 -16 3 -39 7 -50
10 -39 9 -93 14 -99 9z"/>
</g>
</svg>
